<?xml version="1.0" standalone="no"?>
<!DOCTYPE svg PUBLIC "-//W3C//DTD SVG 20010904//EN"
 "http://www.w3.org/TR/2001/REC-SVG-20010904/DTD/svg10.dtd">
<svg version="1.0" xmlns="http://www.w3.org/2000/svg"
 width="912.000000pt" height="912.000000pt" viewBox="0 0 912.000000 912.000000"
 preserveAspectRatio="xMidYMid meet">
<metadata>
Created by potrace 1.11, written by Peter Selinger 2001-2013
</metadata>
<g transform="translate(0.000000,912.000000) scale(0.100000,-0.100000)"
fill="#000000" stroke="none">
<path d="M0 4560 l0 -2950 4560 0 4560 0 0 2950 0 2950 -4560 0 -4560 0 0
-2950z m3780 1640 l0 -320 -1040 0 -1040 0 2 -497 3 -498 958 -3 957 -2 0
-310 0 -310 -957 -2 -958 -3 -3 -507 -2 -508 1040 0 1040 0 0 -320 0 -320
-1415 0 -1415 0 0 1960 0 1960 1415 0 1415 0 0 -320z m2145 -327 c242 -353
443 -642 446 -643 3 0 205 290 449 645 l444 645 419 0 c331 0 418 -3 414 -12
-2 -7 -294 -436 -648 -953 -353 -517 -642 -947 -642 -955 0 -13 300 -455 1179
-1738 96 -140 174 -255 174 -258 0 -2 -190 -3 -422 -2 l-421 3 -466 684 c-256
376 -471 686 -477 688 -5 2 -221 -307 -479 -687 l-470 -690 -423 0 -423 0 53
78 c28 42 335 495 680 1005 345 511 628 933 628 939 0 8 -379 561 -1090 1588
-97 140 -185 267 -195 283 l-17 27 423 -2 423 -3 441 -642z"/>
</g>
</svg>
